<svg width="25" height="25" viewBox="0 0 25 25" fill="none" xmlns="http://www.w3.org/2000/svg">
<g clip-path="url(#clip0_140_470)">
<path d="M0 12.5C0 5.59644 5.59644 0 12.5 0C19.4036 0 25 5.59644 25 12.5C25 19.4036 19.4036 25 12.5 25C5.59644 25 0 19.4036 0 12.5Z" fill="#4675C0"/>
<path d="M12.5 23.4375C9.59919 23.4375 6.8172 22.2852 4.76602 20.234C2.71484 18.1828 1.5625 15.4008 1.5625 12.5C1.5625 9.59919 2.71484 6.8172 4.76602 4.76602C6.8172 2.71484 9.59919 1.5625 12.5 1.5625C15.4008 1.5625 18.1828 2.71484 20.234 4.76602C22.2852 6.8172 23.4375 9.59919 23.4375 12.5C23.4375 15.4008 22.2852 18.1828 20.234 20.234C18.1828 22.2852 15.4008 23.4375 12.5 23.4375ZM12.5 25C15.8152 25 18.9946 23.683 21.3388 21.3388C23.683 18.9946 25 15.8152 25 12.5C25 9.18479 23.683 6.00537 21.3388 3.66117C18.9946 1.31696 15.8152 0 12.5 0C9.18479 0 6.00537 1.31696 3.66117 3.66117C1.31696 6.00537 0 9.18479 0 12.5C0 15.8152 1.31696 18.9946 3.66117 21.3388C6.00537 23.683 9.18479 25 12.5 25Z" fill="white"/>
<path d="M9.95637 15.5941L10.6438 14.7468L8.43074 13.0005L10.6438 11.2543L9.95637 10.407L7.2065 12.5769C7.14207 12.6277 7.09005 12.6922 7.05431 12.7655C7.01856 12.8388 7 12.9192 7 13.0005C7 13.0819 7.01856 13.1622 7.05431 13.2356C7.09005 13.3089 7.14207 13.3734 7.2065 13.4242L9.95637 15.5941ZM15.0436 10.407L14.3562 11.2543L16.5693 13.0005L14.3562 14.7468L15.0436 15.5941L17.7935 13.4242C17.8579 13.3734 17.9099 13.3089 17.9457 13.2356C17.9814 13.1622 18 13.0819 18 13.0005C18 12.9192 17.9814 12.8388 17.9457 12.7655C17.9099 12.6922 17.8579 12.6277 17.7935 12.5769L15.0436 10.407ZM14.1367 8.23543L11.9368 18L10.8627 17.7646L13.0626 8L14.1367 8.23543Z" fill="white"/>
</g>
<defs>
<clipPath id="clip0_140_470">
<path d="M0 12.5C0 5.59644 5.59644 0 12.5 0C19.4036 0 25 5.59644 25 12.5C25 19.4036 19.4036 25 12.5 25C5.59644 25 0 19.4036 0 12.5Z" fill="white"/>
</clipPath>
</defs>
</svg>
